<?xml version="1.0" encoding="UTF-8" standalone="no"?>
<svg
   width="40"
   height="50"
   fill="none"
   version="1.1"
   id="svg1"
   sodipodi:docname="Bizum-0.svg"
   inkscape:version="1.4.2 (ebf0e940d0, 2025-05-08)"
   xmlns:inkscape="http://www.inkscape.org/namespaces/inkscape"
   xmlns:sodipodi="http://sodipodi.sourceforge.net/DTD/sodipodi-0.dtd"
   xmlns="http://www.w3.org/2000/svg"
   xmlns:svg="http://www.w3.org/2000/svg">
  <defs
     id="defs1" />
  <sodipodi:namedview
     id="namedview1"
     pagecolor="#ffffff"
     bordercolor="#000000"
     borderopacity="0.25"
     inkscape:showpageshadow="2"
     inkscape:pageopacity="0.0"
     inkscape:pagecheckerboard="0"
     inkscape:deskcolor="#d1d1d1"
     inkscape:zoom="7.6147541"
     inkscape:cx="60.934338"
     inkscape:cy="18.057051"
     inkscape:window-width="1920"
     inkscape:window-height="1008"
     inkscape:window-x="0"
     inkscape:window-y="29"
     inkscape:window-maximized="1"
     inkscape:current-layer="svg1" />
  <path
     fill-rule="evenodd"
     clip-rule="evenodd"
     d="m 10.177243,17.880114 c 1.82108,1.324692 4.359529,0.938364 5.683889,-0.883036 l 4.745899,-6.567895 C 21.931446,8.6078393 21.545118,6.0690014 19.724134,4.7443789 17.903012,3.4197702 15.364563,3.8061121 14.040121,5.627456 L 9.2391144,12.195337 C 7.9698896,14.016695 8.356176,16.55556 10.177243,17.880114 Z M 31.919675,8.6078393 C 30.098553,7.2832306 27.560103,7.6695725 26.235689,9.4909164 L 7.1420577,35.762414 c -1.3244145,1.821399 -0.9381281,4.360265 0.8829384,5.684818 1.8210665,1.324692 4.3595299,0.938364 5.6839449,-0.883036 L 32.802572,14.292643 c 1.379604,-1.82133 0.938086,-4.3601812 -0.882897,-5.6848037 z M 8.3561621,6.5105746 C 9.6805766,4.6892308 9.2942764,2.150379 7.4732099,0.82576896 5.6521434,-0.49884663 3.1136799,-0.11250059 1.7892695,1.7088474 0.46485499,3.5301913 0.85114279,6.069043 2.6722176,7.3936517 4.4932841,8.7182742 7.0317476,8.3319185 8.3561621,6.5105746 Z M 37.327713,42.606355 c -1.820984,-1.324692 -4.359433,-0.938226 -5.683848,0.883035 -1.324414,1.821399 -0.938225,4.360265 0.882897,5.684818 1.821122,1.324692 4.359571,0.938225 5.683986,-0.883035 1.324414,-1.8214 0.938086,-4.360265 -0.883035,-5.684818 z M 29.877933,32.174944 C 28.05695,30.85039 25.5185,31.236718 24.194085,33.058118 l -4.801089,6.567853 c -1.324414,1.821261 -0.938086,4.360127 0.882897,5.684818 1.821122,1.324554 4.359571,0.938226 5.683986,-0.883174 l 4.801089,-6.567853 c 1.324415,-1.821261 0.938087,-4.360127 -0.883035,-5.684818 z"
     fill="#05c0c7"
     id="path1"
     sodipodi:nodetypes="ccccccccccccccscccscccccccccccc"
     style="stroke-width:1.38668" />
</svg>
